<svg width="122" height="36" viewBox="0 0 122 36" xmlns="http://www.w3.org/2000/svg"><title>shipable-logo</title><defs><linearGradient x1="95.726%" y1="37.837%" x2="13.674%" y2="38.945%" id="a"><stop stop-color="#4951FF" offset="0%"/><stop stop-color="#3A41CE" offset="100%"/></linearGradient></defs><g fill-rule="nonzero" fill="none"><g fill="url(#a)"><path d="m18.564 0 11.6 6.834-11.6 6.581v-3.18c-3.864.134-6.956 3.32-6.956 7.23v.506H4.84v-.506c0-7.663 6.12-13.89 13.723-14.026V0ZM11.6 36 0 29.166l11.6-6.581.001 3.18c3.864-.134 6.955-3.32 6.955-7.23v-.506h6.769v.506c0 7.663-6.122 13.89-13.724 14.026V36Z"/></g><path d="M73.946 14.352c2.97 0 4.682 2.656 4.682 5.879 0 3.636-1.908 5.944-4.855 5.944-1.289 0-2.289-.475-3.02-1.346l-.058-.07h-.065v4.726h-4.097V14.7h3.902v1.307h.065c.802-1.045 1.929-1.655 3.446-1.655ZM40.221 9.953c3.176 0 6.096 1.324 6.218 4.646l.002.101h-4.486c-.13-.849-.737-1.393-1.973-1.393-.997 0-1.69.457-1.69 1.088 0 .903 1.288 1.042 3.552 1.59l.323.08c2.52.637 4.968 1.696 4.968 4.906 0 3.397-3.013 5.204-6.676 5.204-3.99 0-7.026-1.707-7.15-5.227l-.002-.107h4.638c.15 1.221 1.075 1.81 2.53 1.828h.071c.889 0 1.972-.348 1.972-1.284 0-.853-.862-1.127-2.456-1.531l-.806-.204c-2.533-.648-5.43-1.598-5.43-4.776 0-3.57 2.905-4.92 6.395-4.92Zm55.638.284v5.617h.065c.78-.98 1.755-1.502 3.25-1.502 2.97 0 4.683 2.656 4.683 5.879 0 3.789-1.8 5.944-4.725 5.944-1.36 0-2.636-.523-3.38-1.732l-.045-.075h-.043v1.437h-3.902V10.237h4.097Zm20.135 4.093c1.734 0 3.056.566 4.075 1.502 1.32 1.22 1.95 3.151 1.93 5.303l-.001.12h-7.89c.239 1.284.932 2.068 2.168 2.068.69 0 1.2-.264 1.507-.772l.032-.056h3.966c-.238 1.002-1.019 1.982-2.102 2.679-1.019.653-2.124.936-3.533.936-3.62 0-6.047-2.482-6.047-5.88 0-3.352 2.406-5.9 5.895-5.9Zm-31.124.022c1.69 0 2.774.218 3.62.74 1.123.703 1.687 1.802 1.71 3.236l.002.096v5.636l.002.16.003.138c.019.67.104 1.059.376 1.252l.03.02v.175h-4.03c-.145-.249-.27-.577-.357-1.134l-.012-.085h-.044c-.737 1.023-1.907 1.502-3.338 1.502-2.124 0-3.684-1.154-3.684-3.331 0-2.433 1.843-3.163 3.938-3.41l.367-.043.165-.02c1.905-.24 2.475-.52 2.507-1.13l.002-.057c0-.61-.282-1.067-1.17-1.067-.868 0-1.322.498-1.444 1.271l-.009.057h-3.88c.087-2.199 1.778-4.006 5.246-4.006Zm-32.598-4.115v5.726h.065c.823-.958 1.82-1.611 3.36-1.611 2.531 0 3.852 1.686 3.879 4.191v7.262H55.48v-6.184c0-1.154-.477-1.916-1.54-1.916-1.023 0-1.648.885-1.668 2.053v6.047h-4.097V10.237h4.097ZM65.06 14.7v11.105h-4.097V14.7h4.097Zm44.02-4.463v15.568h-4.205V10.237h4.205Zm-22.845 10.56c-.368.185-.833.35-1.468.497l-.114.026c-1.192.26-1.56.61-1.56 1.262 0 .74.606 1.067 1.278 1.067.937 0 1.832-.525 1.863-1.802l.001-.07v-.98ZM72.56 17.64c-1.257 0-2.08 1.176-2.08 2.765 0 1.611.823 2.744 2.08 2.744 1.214 0 1.907-1.046 1.907-2.744 0-1.698-.693-2.765-1.907-2.765Zm25.229-.305c-1.257 0-2.081 1.241-2.081 2.852 0 1.633.824 2.853 2.08 2.853 1.258 0 1.908-1.11 1.908-2.853 0-1.742-.672-2.852-1.907-2.852Zm18.293-.24c-1.105 0-1.731.733-1.96 1.91l-.013.072h3.815c-.173-1.241-.867-1.982-1.842-1.982ZM65.06 10.237v3.113h-4.097v-3.113h4.097Z" fill="#00276D"/></g></svg>